<?xml version="1.0" encoding="UTF-8" standalone="no"?>
<!-- Created with Inkscape (http://www.inkscape.org/) -->

<svg
   xmlns:dc="http://purl.org/dc/elements/1.1/"
   xmlns:cc="http://creativecommons.org/ns#"
   xmlns:rdf="http://www.w3.org/1999/02/22-rdf-syntax-ns#"
   xmlns:svg="http://www.w3.org/2000/svg"
   xmlns="http://www.w3.org/2000/svg"
   xmlns:sodipodi="http://sodipodi.sourceforge.net/DTD/sodipodi-0.dtd"
   xmlns:inkscape="http://www.inkscape.org/namespaces/inkscape"
   width="210mm"
   height="297mm"
   viewBox="0 0 744.09448819 1052.3622047"
   id="svg2"
   version="1.1"
   inkscape:version="0.91 r13725"
   sodipodi:docname="baloon.svg">
  <defs
     id="defs4" />
  <sodipodi:namedview
     id="base"
     pagecolor="#ffffff"
     bordercolor="#666666"
     borderopacity="1.0"
     inkscape:pageopacity="0.0"
     inkscape:pageshadow="2"
     inkscape:zoom="1"
     inkscape:cx="420.49837"
     inkscape:cy="616.67227"
     inkscape:document-units="px"
     inkscape:current-layer="layer1"
     showgrid="false"
     showguides="true"
     inkscape:guide-bbox="true"
     inkscape:window-width="1436"
     inkscape:window-height="855"
     inkscape:window-x="4"
     inkscape:window-y="1"
     inkscape:window-maximized="1" />
  <metadata
     id="metadata7">
    <rdf:RDF>
      <cc:Work
         rdf:about="">
        <dc:format>image/svg+xml</dc:format>
        <dc:type
           rdf:resource="http://purl.org/dc/dcmitype/StillImage" />
        <dc:title />
      </cc:Work>
    </rdf:RDF>
  </metadata>
  <g
     inkscape:groupmode="layer"
     id="layer2"
     inkscape:label="Ebene 2" />
  <g
     inkscape:label="Ebene 1"
     inkscape:groupmode="layer"
     id="layer1">
    <path
       style="opacity:1;fill:#1da6ab;fill-opacity:1;stroke:none;stroke-width:5;stroke-miterlimit:4;stroke-dasharray:none;stroke-opacity:1"
       d="m 564.84083,337.22258 c 0,48.38125 -22.98824,92.18224 -60.1552,123.88793 -18.58348,15.85284 -80.11158,49.63947 -80.37262,109.64117 0,0 -111.22631,0.0318 -123.84166,-0.41914 -0.26104,-60.00191 -67.65722,-93.36919 -86.2407,-109.22203 -37.16696,-31.70569 -60.1552,-75.50668 -60.1552,-123.88793 0,-96.7625 91.95297,-175.204 205.38269,-175.204 56.71486,0 108.06054,19.61037 145.22749,51.31606 37.16696,31.70569 60.1552,75.50669 60.1552,123.88794 z"
       id="path4147"
       inkscape:connector-curvature="0"
       sodipodi:nodetypes="ssccsssss" />
    <path
       style="opacity:1;fill:#5c2b0e;fill-opacity:1;stroke:none;stroke-width:5;stroke-miterlimit:4;stroke-dasharray:none;stroke-opacity:1"
       d="m 359.4583,162.01887 c -48.76738,0 -93.55562,14.50827 -128.78251,38.72931 l 257.56502,0 C 453.01393,176.52714 408.22568,162.01887 359.4583,162.01887 Z"
       id="path4152"
       inkscape:connector-curvature="0" />
    <g
       id="g4185"
       transform="matrix(0.58680767,0,0,0.58680767,135.26199,263.7429)"
       style="fill:#ece4cc;fill-opacity:1">
      <path
         style="opacity:1;fill:#ece4cc;fill-opacity:1;stroke:none;stroke-width:5;stroke-miterlimit:4;stroke-dasharray:none;stroke-opacity:1"
         d="m 219.06096,-120.8589 a 7,7 0 0 1 -7,7 7,7 0 0 1 -7,-7 7,7 0 0 1 7,-7 7,7 0 0 1 7,7 z"
         id="path4159"
         inkscape:connector-curvature="0" />
      <path
         style="opacity:1;fill:#ece4cc;fill-opacity:1;stroke:none;stroke-width:5;stroke-miterlimit:4;stroke-dasharray:none;stroke-opacity:1"
         d="m 253.06096,-120.8589 a 7,7 0 0 1 -7,7 7,7 0 0 1 -7,-7 7,7 0 0 1 7,-7 7,7 0 0 1 7,7 z"
         id="circle4163"
         inkscape:connector-curvature="0" />
      <path
         style="opacity:1;fill:#ece4cc;fill-opacity:1;stroke:none;stroke-width:5;stroke-miterlimit:4;stroke-dasharray:none;stroke-opacity:1"
         d="m 287.06097,-120.8589 a 7,7 0 0 1 -7,7 7,7 0 0 1 -7,-7 7,7 0 0 1 7,-7 7,7 0 0 1 7,7 z"
         id="circle4165"
         inkscape:connector-curvature="0" />
      <path
         style="opacity:1;fill:#ece4cc;fill-opacity:1;stroke:none;stroke-width:5;stroke-miterlimit:4;stroke-dasharray:none;stroke-opacity:1"
         d="m 321.06097,-120.8589 a 7,7 0 0 1 -7,7 7,7 0 0 1 -7,-7 7,7 0 0 1 7,-7 7,7 0 0 1 7,7 z"
         id="circle4167"
         inkscape:connector-curvature="0" />
      <path
         style="opacity:1;fill:#ece4cc;fill-opacity:1;stroke:none;stroke-width:5;stroke-miterlimit:4;stroke-dasharray:none;stroke-opacity:1"
         d="m 355.06097,-120.8589 a 7,7 0 0 1 -7,7 7,7 0 0 1 -7,-7 7,7 0 0 1 7,-7 7,7 0 0 1 7,7 z"
         id="circle4169"
         inkscape:connector-curvature="0" />
      <path
         style="opacity:1;fill:#ece4cc;fill-opacity:1;stroke:none;stroke-width:5;stroke-miterlimit:4;stroke-dasharray:none;stroke-opacity:1"
         d="m 389.06097,-120.8589 a 7,7 0 0 1 -7,7 7,7 0 0 1 -7,-7 7,7 0 0 1 7,-7 7,7 0 0 1 7,7 z"
         id="circle4171"
         inkscape:connector-curvature="0" />
      <path
         style="opacity:1;fill:#ece4cc;fill-opacity:1;stroke:none;stroke-width:5;stroke-miterlimit:4;stroke-dasharray:none;stroke-opacity:1"
         d="m 423.06097,-120.8589 a 7,7 0 0 1 -7,7 7,7 0 0 1 -7,-7 7,7 0 0 1 7,-7 7,7 0 0 1 7,7 z"
         id="circle4173"
         inkscape:connector-curvature="0" />
      <path
         style="opacity:1;fill:#ece4cc;fill-opacity:1;stroke:none;stroke-width:5;stroke-miterlimit:4;stroke-dasharray:none;stroke-opacity:1"
         d="m 457.06097,-120.8589 a 7,7 0 0 1 -7,7 7,7 0 0 1 -7,-7 7,7 0 0 1 7,-7 7,7 0 0 1 7,7 z"
         id="circle4175"
         inkscape:connector-curvature="0" />
      <path
         style="opacity:1;fill:#ece4cc;fill-opacity:1;stroke:none;stroke-width:5;stroke-miterlimit:4;stroke-dasharray:none;stroke-opacity:1"
         d="m 491.06097,-120.8589 a 7,7 0 0 1 -7,7 7,7 0 0 1 -7,-7 7,7 0 0 1 7,-7 7,7 0 0 1 7,7 z"
         id="circle4177"
         inkscape:connector-curvature="0" />
      <path
         style="opacity:1;fill:#ece4cc;fill-opacity:1;stroke:none;stroke-width:5;stroke-miterlimit:4;stroke-dasharray:none;stroke-opacity:1"
         d="m 525.06097,-120.8589 a 7,7 0 0 1 -7,7 7,7 0 0 1 -7,-7 7,7 0 0 1 7,-7 7,7 0 0 1 7,7 z"
         id="circle4179"
         inkscape:connector-curvature="0" />
      <path
         style="opacity:1;fill:#ece4cc;fill-opacity:1;stroke:none;stroke-width:5;stroke-miterlimit:4;stroke-dasharray:none;stroke-opacity:1"
         d="m 559.06097,-120.8589 a 7,7 0 0 1 -7,7 7,7 0 0 1 -7,-7 7,7 0 0 1 7,-7 7,7 0 0 1 7,7 z"
         id="circle4181"
         inkscape:connector-curvature="0" />
    </g>
    <path
       style="opacity:1;fill:#e84d58;fill-opacity:1;stroke:none;stroke-width:5;stroke-miterlimit:4;stroke-dasharray:none;stroke-opacity:1"
       d="m 158.63025,300.36681 c -2.98243,11.88331 -4.55464,24.21244 -4.55464,36.85542 0,24.36795 5.83349,47.57353 16.37102,68.65764 l 378.02219,0 c 10.53782,-21.08411 16.37217,-44.28969 16.37217,-68.65764 0,-12.643 -1.57334,-24.97209 -4.55579,-36.85542 l -401.65495,0 z"
       id="path4230"
       inkscape:connector-curvature="0" />
    <path
       style="opacity:1;fill:#e84d58;fill-opacity:1;stroke:none;stroke-width:5;stroke-miterlimit:4;stroke-dasharray:none;stroke-opacity:1"
       d="m 294.99771,541.7671 c 3.40897,8.76941 5.42905,18.27549 5.47382,28.56561 12.61535,0.45095 123.84163,0.41948 123.84163,0.41948 0.0454,-10.44164 1.94932,-20.08759 5.15634,-28.98509 l -134.47179,0 z"
       id="path4264"
       inkscape:connector-curvature="0" />
    <path
       style="opacity:1;fill:#5c2b0e;fill-opacity:1;stroke:none;stroke-width:5;stroke-miterlimit:4;stroke-dasharray:none;stroke-opacity:1"
       d="m 554.21656,392.97583 c -0.39494,1.00425 -0.79701,2.00563 -1.21258,3.00166 l 1.49682,-2.85266 z m -383.04559,12.90403 143.2636,272.98132 -14.3,0 c 0.0158,0.19848 0.0218,0.39625 0.047,0.59597 l 3.52085,28.04758 c 1.56736,12.48648 11.98042,22.61501 31.23605,22.61501 l 49.03855,0 c 19.25563,0 29.66983,-10.12853 31.23719,-22.61501 l 3.52085,-28.04758 c 0.0252,-0.19972 0.0312,-0.39749 0.047,-0.59597 l -14.23925,0 143.26359,-272.98132 -5.3019,0 -143.26359,272.98132 -15.84495,0 73.67072,-272.98132 -4.86179,0 -73.67073,272.98132 -16.7286,0 0,-272.98132 -4.69446,0 0,272.98132 -10.69319,0 -73.67073,-272.98132 -4.86179,0 73.67072,272.98132 -21.81961,0 -143.26363,-272.98131 z"
       id="rect4250"
       inkscape:connector-curvature="0"
       sodipodi:nodetypes="ccccccccssssccccccccccccccccccccc" />
    <g
       id="g4343"
       transform="matrix(0.58680767,0,0,0.58680767,-380.29659,262.55737)"
       style="opacity:1;fill:#1da6ab;fill-opacity:1">
      <circle
         r="8.5"
         cy="224.57649"
         cx="955.64288"
         id="path4301"
         style="opacity:1;fill:#1da6ab;fill-opacity:1;stroke:none;stroke-width:5;stroke-miterlimit:4;stroke-dasharray:none;stroke-opacity:1" />
      <circle
         style="opacity:1;fill:#1da6ab;fill-opacity:1;stroke:none;stroke-width:5;stroke-miterlimit:4;stroke-dasharray:none;stroke-opacity:1"
         id="circle4303"
         cx="993.64288"
         cy="224.57649"
         r="8.5" />
      <circle
         r="8.5"
         cy="224.57649"
         cx="1031.6428"
         id="circle4313"
         style="opacity:1;fill:#1da6ab;fill-opacity:1;stroke:none;stroke-width:5;stroke-miterlimit:4;stroke-dasharray:none;stroke-opacity:1" />
      <circle
         style="opacity:1;fill:#1da6ab;fill-opacity:1;stroke:none;stroke-width:5;stroke-miterlimit:4;stroke-dasharray:none;stroke-opacity:1"
         id="circle4315"
         cx="1069.6428"
         cy="224.57649"
         r="8.5" />
      <circle
         r="8.5"
         cy="224.57649"
         cx="1107.6428"
         id="circle4317"
         style="opacity:1;fill:#1da6ab;fill-opacity:1;stroke:none;stroke-width:5;stroke-miterlimit:4;stroke-dasharray:none;stroke-opacity:1" />
      <circle
         style="opacity:1;fill:#1da6ab;fill-opacity:1;stroke:none;stroke-width:5;stroke-miterlimit:4;stroke-dasharray:none;stroke-opacity:1"
         id="circle4319"
         cx="1145.6428"
         cy="224.57649"
         r="8.5" />
      <circle
         r="8.5"
         cy="224.57649"
         cx="1183.6428"
         id="circle4321"
         style="opacity:1;fill:#1da6ab;fill-opacity:1;stroke:none;stroke-width:5;stroke-miterlimit:4;stroke-dasharray:none;stroke-opacity:1" />
      <circle
         style="opacity:1;fill:#1da6ab;fill-opacity:1;stroke:none;stroke-width:5;stroke-miterlimit:4;stroke-dasharray:none;stroke-opacity:1"
         id="circle4323"
         cx="1221.6428"
         cy="224.57649"
         r="8.5" />
      <circle
         r="8.5"
         cy="224.57649"
         cx="1259.6428"
         id="circle4325"
         style="opacity:1;fill:#1da6ab;fill-opacity:1;stroke:none;stroke-width:5;stroke-miterlimit:4;stroke-dasharray:none;stroke-opacity:1" />
      <circle
         style="opacity:1;fill:#1da6ab;fill-opacity:1;stroke:none;stroke-width:5;stroke-miterlimit:4;stroke-dasharray:none;stroke-opacity:1"
         id="circle4327"
         cx="1299.6428"
         cy="224.57649"
         r="8.5" />
      <circle
         r="8.5"
         cy="224.57649"
         cx="1337.6428"
         id="circle4329"
         style="opacity:1;fill:#1da6ab;fill-opacity:1;stroke:none;stroke-width:5;stroke-miterlimit:4;stroke-dasharray:none;stroke-opacity:1" />
      <circle
         style="opacity:1;fill:#1da6ab;fill-opacity:1;stroke:none;stroke-width:5;stroke-miterlimit:4;stroke-dasharray:none;stroke-opacity:1"
         id="circle4331"
         cx="1375.6428"
         cy="224.57649"
         r="8.5" />
      <circle
         r="8.5"
         cy="224.57649"
         cx="1413.6428"
         id="circle4333"
         style="opacity:1;fill:#1da6ab;fill-opacity:1;stroke:none;stroke-width:5;stroke-miterlimit:4;stroke-dasharray:none;stroke-opacity:1" />
      <circle
         style="opacity:1;fill:#1da6ab;fill-opacity:1;stroke:none;stroke-width:5;stroke-miterlimit:4;stroke-dasharray:none;stroke-opacity:1"
         id="circle4335"
         cx="1451.6428"
         cy="224.57649"
         r="8.5" />
      <circle
         r="8.5"
         cy="224.57649"
         cx="1489.6428"
         id="circle4337"
         style="opacity:1;fill:#1da6ab;fill-opacity:1;stroke:none;stroke-width:5;stroke-miterlimit:4;stroke-dasharray:none;stroke-opacity:1" />
      <circle
         style="opacity:1;fill:#1da6ab;fill-opacity:1;stroke:none;stroke-width:5;stroke-miterlimit:4;stroke-dasharray:none;stroke-opacity:1"
         id="circle4339"
         cx="1527.6428"
         cy="224.57649"
         r="8.5" />
      <circle
         r="8.5"
         cy="224.57649"
         cx="1565.6428"
         id="circle4341"
         style="opacity:1;fill:#1da6ab;fill-opacity:1;stroke:none;stroke-width:5;stroke-miterlimit:4;stroke-dasharray:none;stroke-opacity:1" />
    </g>
    <path
       style="opacity:1;fill:#5c2b0e;fill-opacity:1;stroke:none;stroke-width:5;stroke-miterlimit:4;stroke-dasharray:none;stroke-opacity:1"
       d="m 157.40025,305.36728 a 15.959486,21.932315 0 0 0 15.33075,15.90799 15.959486,21.932315 0 0 0 14.36034,-12.42497 15.959486,21.932315 0 0 0 14.36613,12.42497 15.959486,21.932315 0 0 0 14.36034,-12.42497 15.959486,21.932315 0 0 0 14.36729,12.42497 15.959486,21.932315 0 0 0 14.36034,-12.42497 15.959486,21.932315 0 0 0 14.36613,12.42497 15.959486,21.932315 0 0 0 14.36034,-12.42497 15.959486,21.932315 0 0 0 14.36729,12.42497 15.959486,21.932315 0 0 0 14.36034,-12.42497 15.959486,21.932315 0 0 0 14.36612,12.42497 15.959486,21.932315 0 0 0 14.36034,-12.42497 15.959486,21.932315 0 0 0 14.3673,12.42497 15.959486,21.932315 0 0 0 14.36034,-12.42497 15.959486,21.932315 0 0 0 14.36728,12.42497 15.959486,21.932315 0 0 0 14.35918,-12.42497 15.959486,21.932315 0 0 0 14.36729,12.42497 15.959486,21.932315 0 0 0 14.36034,-12.42497 15.959486,21.932315 0 0 0 14.36729,12.42497 15.959486,21.932315 0 0 0 14.36034,-12.42611 15.959486,21.932315 0 0 0 14.36613,12.42611 15.959486,21.932315 0 0 0 14.36034,-12.42497 15.959486,21.932315 0 0 0 14.36728,12.42497 15.959486,21.932315 0 0 0 14.36035,-12.42611 15.959486,21.932315 0 0 0 14.36613,12.42611 15.959486,21.932315 0 0 0 14.36034,-12.42497 15.959486,21.932315 0 0 0 14.36729,12.42497 15.959486,21.932315 0 0 0 15.34,-15.90799 l -404.12297,0 z"
       id="ellipse4372"
       inkscape:connector-curvature="0" />
    <path
       style="fill:none;fill-rule:evenodd;stroke:#5c2b0e;stroke-width:4.69446135;stroke-linecap:butt;stroke-linejoin:miter;stroke-miterlimit:4;stroke-dasharray:none;stroke-opacity:1"
       d="M 217.09681,488.86651 C 169.7862,388.3604 241.67079,381.23319 288.84338,475.82567"
       id="path4436"
       inkscape:connector-curvature="0"
       sodipodi:nodetypes="cc" />
    <path
       sodipodi:nodetypes="cc"
       inkscape:connector-curvature="0"
       id="path4438"
       d="m 288.82141,477.0112 c -16.71258,-102.95959 69.22071,-85.63526 70.53909,1.18553"
       style="fill:none;fill-rule:evenodd;stroke:#5c2b0e;stroke-width:4.69446135;stroke-linecap:butt;stroke-linejoin:miter;stroke-miterlimit:4;stroke-dasharray:none;stroke-opacity:1" />
    <path
       style="fill:none;fill-rule:evenodd;stroke:#5c2b0e;stroke-width:4.69446135;stroke-linecap:butt;stroke-linejoin:miter;stroke-miterlimit:4;stroke-dasharray:none;stroke-opacity:1"
       d="m 359.36046,479.38226 c -1.25465,-70.38325 91.96319,-119.11039 74.80258,2.84974"
       id="path4440"
       inkscape:connector-curvature="0"
       sodipodi:nodetypes="cc" />
    <path
       sodipodi:nodetypes="cc"
       inkscape:connector-curvature="0"
       id="path4442"
       d="m 433.40784,483.05296 c 21.47083,-71.82133 115.05699,-123.40073 71.4816,-0.70686"
       style="fill:none;fill-rule:evenodd;stroke:#5c2b0e;stroke-width:4.69446135;stroke-linecap:butt;stroke-linejoin:miter;stroke-miterlimit:4;stroke-dasharray:none;stroke-opacity:1" />
  </g>
</svg>
