<?xml version="1.0" encoding="UTF-8" standalone="no"?>
<!-- Created with Inkscape (http://www.inkscape.org/) -->

<svg
   xmlns:dc="http://purl.org/dc/elements/1.1/"
   xmlns:cc="http://creativecommons.org/ns#"
   xmlns:rdf="http://www.w3.org/1999/02/22-rdf-syntax-ns#"
   xmlns:svg="http://www.w3.org/2000/svg"
   xmlns="http://www.w3.org/2000/svg"
   xmlns:sodipodi="http://sodipodi.sourceforge.net/DTD/sodipodi-0.dtd"
   xmlns:inkscape="http://www.inkscape.org/namespaces/inkscape"
   inkscape:version="0.91 r13725"
   version="1.1"
   id="svg2"
   viewBox="0 0 744.09448819 1052.3622047"
   height="297mm"
   width="210mm"
   sodipodi:docname="bude_bg.svg">
  <sodipodi:namedview
     inkscape:window-maximized="1"
     inkscape:window-y="1"
     inkscape:window-x="4"
     inkscape:window-height="855"
     inkscape:window-width="1436"
     showguides="false"
     showgrid="false"
     inkscape:current-layer="layer2"
     inkscape:document-units="px"
     inkscape:cy="506.978"
     inkscape:cx="484.91927"
     inkscape:zoom="0.70710678"
     inkscape:pageshadow="2"
     inkscape:pageopacity="0.0"
     borderopacity="1.0"
     bordercolor="#666666"
     pagecolor="#ffffff"
     id="base" />
  <defs
     id="defs4">
    <inkscape:path-effect
       vertical="false"
       scale_y_rel="false"
       prop_scale="1"
       bendpath="m 119,274.3622 76,0"
       is_visible="true"
       id="path-effect4271"
       effect="bend_path" />
    <inkscape:path-effect
       vertical="false"
       scale_y_rel="false"
       prop_scale="1"
       bendpath="m 119,274.3622 76,0"
       is_visible="true"
       id="path-effect4268"
       effect="bend_path" />
  </defs>
  <metadata
     id="metadata7">
    <rdf:RDF>
      <cc:Work
         rdf:about="">
        <dc:format>image/svg+xml</dc:format>
        <dc:type
           rdf:resource="http://purl.org/dc/dcmitype/StillImage" />
        <dc:title />
      </cc:Work>
    </rdf:RDF>
  </metadata>
  <g
     style="display:inline"
     inkscape:label="blue background"
     id="layer2"
     inkscape:groupmode="layer">
    <rect
       y="416.37015"
       x="116.80198"
       height="305.06607"
       width="507.09659"
       id="rect4174"
       style="opacity:1;fill:#1c4f6f;fill-opacity:1" />
    <rect
       transform="matrix(0.99801016,-0.06305333,0.04343187,0.99905639,0,0)"
       y="424.44931"
       x="65.156319"
       height="304.31171"
       width="64.689888"
       id="rect4176"
       style="opacity:1;fill:#0f3043;fill-opacity:1" />
    <rect
       style="opacity:1;fill:#0f3043;fill-opacity:1"
       id="rect4178"
       width="64.689888"
       height="304.31171"
       x="-674.98816"
       y="377.73654"
       transform="matrix(-0.99801016,-0.06305333,-0.04343187,0.99905639,0,0)" />
    <path
       id="path4190"
       d="m 370.35112,531.84976 a 179.24698,118.59831 0 0 0 -179.24804,118.5957 179.24698,118.59831 0 0 0 46.27344,79.33008 l 265.9375,0 a 179.24698,118.59831 0 0 0 46.2832,-79.33008 179.24698,118.59831 0 0 0 -179.2461,-118.5957 z"
       style="opacity:0.5;fill:#3d6886;fill-opacity:1"
       inkscape:connector-curvature="0" />
    <path
       style="opacity:0.5;fill:#3d6886;fill-opacity:1"
       d="M 370.35027,491.84902 A 179.24698,118.59831 0 0 0 191.10338,610.44513 179.24698,118.59831 0 0 0 370.35027,729.04385 179.24698,118.59831 0 0 0 549.59715,610.44513 179.24698,118.59831 0 0 0 370.35027,491.84902 Z"
       id="path4194"
       inkscape:connector-curvature="0" />
  </g>
</svg>
