<?xml version="1.0" encoding="UTF-8" standalone="no"?>
<!-- Created with Inkscape (http://www.inkscape.org/) -->

<svg
   xmlns:dc="http://purl.org/dc/elements/1.1/"
   xmlns:cc="http://creativecommons.org/ns#"
   xmlns:rdf="http://www.w3.org/1999/02/22-rdf-syntax-ns#"
   xmlns:svg="http://www.w3.org/2000/svg"
   xmlns="http://www.w3.org/2000/svg"
   xmlns:sodipodi="http://sodipodi.sourceforge.net/DTD/sodipodi-0.dtd"
   xmlns:inkscape="http://www.inkscape.org/namespaces/inkscape"
   inkscape:version="0.91 r13725"
   version="1.1"
   id="svg2"
   viewBox="0 0 154.60203 29.109243"
   height="29.10924"
   width="154.60202"
   sodipodi:docname="magic.svg">
  <sodipodi:namedview
     inkscape:window-maximized="0"
     inkscape:window-y="0"
     inkscape:window-x="38"
     inkscape:window-height="855"
     inkscape:window-width="1436"
     showguides="false"
     showgrid="false"
     inkscape:current-layer="layer4"
     inkscape:document-units="px"
     inkscape:cy="-1.3717742"
     inkscape:cx="176.59181"
     inkscape:zoom="0.70710678"
     inkscape:pageshadow="2"
     inkscape:pageopacity="0.0"
     borderopacity="1.0"
     bordercolor="#666666"
     pagecolor="#ffffff"
     id="base"
     units="px"
     showborder="true"
     width="280mm"
     fit-margin-top="0"
     fit-margin-left="0"
     fit-margin-right="0"
     fit-margin-bottom="0" />
  <defs
     id="defs4" />
  <metadata
     id="metadata7">
    <rdf:RDF>
      <cc:Work
         rdf:about="">
        <dc:format>image/svg+xml</dc:format>
        <dc:type
           rdf:resource="http://purl.org/dc/dcmitype/StillImage" />
        <dc:title></dc:title>
      </cc:Work>
    </rdf:RDF>
  </metadata>
  <g
     inkscape:groupmode="layer"
     id="layer4"
     inkscape:label="mad"
     style="display:inline"
     transform="translate(-140.63781,-227.81014)">
    <g
       id="g4353"
       transform="matrix(0.36041174,0,0,0.25542923,166.91486,347.34668)">
      <path
         sodipodi:nodetypes="sssssssss"
         inkscape:connector-curvature="0"
         id="path4328"
         d="m 92.467662,-461.38444 c 4.17857,-5.82128 5.07566,27.16569 0.6862,55.56956 -2.51557,16.27805 -33.3029,50.24261 -67.52503,51.07616 -29.4473496,0.71725 -32.5178396,-4.25941 -58.1865,-18.0668 -20.37549,-10.96014 -40.350832,-26.02939 -40.350832,-32.59615 0,-12.42641 2.87014,-62.00998 38.786792,-62.57286 40.2359404,-0.63057 53.07068,34.96044 87.42026,35.77419 27.91016,0.6612 34.85503,1.2332 37.12995,-5.47609 2.27492,-6.70929 -0.12011,-20.69987 2.03916,-23.70801 z"
         style="opacity:1;fill:#ae5252;fill-opacity:1;stroke:none;stroke-width:5;stroke-miterlimit:4;stroke-dasharray:none;stroke-opacity:1" />
      <path
         sodipodi:nodetypes="ccscsccccccsssc"
         inkscape:connector-curvature="0"
         id="path4336"
         d="m -32.255258,-467.97808 c -0.61549,-0.008 -1.2385,-0.006 -1.86719,0.004 -35.916635,0.56288 -38.785155,50.14586 -38.785155,62.57227 0,0.40809 0.07697,0.84958 0.226563,1.32031 1.112019,-17.99272 7.375966,-55.40389 38.558592,-55.89258 23.42425,-0.3671 37.5657799,11.52858 52.06836,21.70508 -13.4199801,6.5156 -22.2714601,22.61971 -22.3066401,40.58399 -10e-5,24.11504 15.6708701,43.66418 35.0019501,43.66406 19.33109,1.3e-4 35.00206,-19.54901 35.00196,-43.66406 -0.0238,-9.56377 -2.56405,-18.85328 -7.23047,-26.44141 21.91391,0.12563 33.68597,-2.64117 37.41015,-9.42578 0.77705,-18.0399 -0.49835,-31.7237 -3.35546,-27.83203 0,0 0.23585,16.99774 -2.03907,23.70703 -2.27492,6.70929 -9.21876,6.13776 -37.1289,5.47656 -33.81287,-0.80103 -46.7786101,-35.30088 -85.55469,-35.77734 z"
         style="opacity:1;fill:#000000;fill-opacity:1;stroke:none;stroke-width:5;stroke-miterlimit:4;stroke-dasharray:none;stroke-opacity:1" />
      <ellipse
         ry="16.970562"
         rx="14.495689"
         cy="-412.3688"
         cx="33.001728"
         id="path4345"
         style="opacity:1;fill:#ffffff;fill-opacity:1;stroke:none;stroke-width:5;stroke-miterlimit:4;stroke-dasharray:none;stroke-opacity:1" />
      <path
         style="opacity:1;fill:#ae5252;fill-opacity:1;stroke:none;stroke-width:5;stroke-miterlimit:4;stroke-dasharray:none;stroke-opacity:1"
         d="m 190.67489,-461.38444 c -4.17857,-5.82128 -5.07566,27.16569 -0.6862,55.56956 2.51557,16.27805 33.3029,50.24261 67.52503,51.07616 29.44734,0.71725 32.51783,-4.25941 58.18649,-18.0668 20.37548,-10.96014 40.35082,-26.02939 40.35082,-32.59615 0,-12.42641 -2.87014,-62.00998 -38.78678,-62.57286 -40.23594,-0.63057 -53.07068,34.96044 -87.42025,35.77419 -27.91016,0.6612 -34.85503,1.2332 -37.12995,-5.47609 -2.27492,-6.70929 0.12011,-20.69987 -2.03916,-23.70801 z"
         id="path4347"
         inkscape:connector-curvature="0"
         sodipodi:nodetypes="sssssssss" />
      <path
         style="opacity:1;fill:#000000;fill-opacity:1;stroke:none;stroke-width:5;stroke-miterlimit:4;stroke-dasharray:none;stroke-opacity:1"
         d="m 315.3978,-467.97808 c 0.61549,-0.008 1.2385,-0.006 1.86719,0.004 35.91662,0.56288 38.78514,50.14586 38.78514,62.57227 0,0.40809 -0.077,0.84958 -0.22656,1.32031 -1.11202,-17.99272 -7.37596,-55.40389 -38.55858,-55.89258 -23.42425,-0.3671 -37.56577,11.52858 -52.06836,21.70508 13.41999,6.5156 22.27146,22.61971 22.30664,40.58399 1e-4,24.11504 -15.67086,43.66418 -35.00194,43.66406 -19.33109,1.3e-4 -35.00206,-19.54901 -35.00196,-43.66406 0.0238,-9.56377 2.56405,-18.85328 7.23047,-26.44141 -21.91391,0.12563 -33.68597,-2.64117 -37.41015,-9.42578 -0.77705,-18.0399 0.49835,-31.7237 3.35546,-27.83203 0,0 -0.23585,16.99774 2.03907,23.70703 2.27492,6.70929 9.21876,6.13776 37.1289,5.47656 33.81286,-0.80103 46.77861,-35.30088 85.55468,-35.77734 z"
         id="path4349"
         inkscape:connector-curvature="0"
         sodipodi:nodetypes="ccscsccccccsssc" />
      <ellipse
         transform="scale(-1,1)"
         style="opacity:1;fill:#ffffff;fill-opacity:1;stroke:none;stroke-width:5;stroke-miterlimit:4;stroke-dasharray:none;stroke-opacity:1"
         id="ellipse4351"
         cx="-250.14081"
         cy="-412.3688"
         rx="14.495689"
         ry="16.970562" />
    </g>
  </g>
  <g
     inkscape:groupmode="layer"
     id="layer3"
     inkscape:label="stab"
     style="display:inline"
     transform="translate(-140.63781,-227.81014)" />
</svg>
