<?xml version="1.0" encoding="UTF-8" standalone="no"?>
<!-- Created with Inkscape (http://www.inkscape.org/) -->

<svg
   xmlns:dc="http://purl.org/dc/elements/1.1/"
   xmlns:cc="http://creativecommons.org/ns#"
   xmlns:rdf="http://www.w3.org/1999/02/22-rdf-syntax-ns#"
   xmlns:svg="http://www.w3.org/2000/svg"
   xmlns="http://www.w3.org/2000/svg"
   xmlns:sodipodi="http://sodipodi.sourceforge.net/DTD/sodipodi-0.dtd"
   xmlns:inkscape="http://www.inkscape.org/namespaces/inkscape"
   width="210mm"
   height="297mm"
   viewBox="0 0 744.09448819 1052.3622047"
   id="svg4185"
   version="1.1"
   inkscape:version="0.91 r13725"
   sodipodi:docname="tent.svg">
  <sodipodi:namedview
     id="base"
     pagecolor="#ffffff"
     bordercolor="#666666"
     borderopacity="1.0"
     inkscape:pageopacity="0.0"
     inkscape:pageshadow="2"
     inkscape:zoom="0.5"
     inkscape:cx="165.31143"
     inkscape:cy="493.95527"
     inkscape:document-units="px"
     inkscape:current-layer="layer1"
     showgrid="false"
     showguides="true"
     inkscape:guide-bbox="true"
     inkscape:window-width="1436"
     inkscape:window-height="855"
     inkscape:window-x="4"
     inkscape:window-y="1"
     inkscape:window-maximized="1" />
  <defs
     id="defs4187" />
  <metadata
     id="metadata4190">
    <rdf:RDF>
      <cc:Work
         rdf:about="">
        <dc:format>image/svg+xml</dc:format>
        <dc:type
           rdf:resource="http://purl.org/dc/dcmitype/StillImage" />
        <dc:title></dc:title>
      </cc:Work>
    </rdf:RDF>
  </metadata>
  <g
     id="layer1"
     inkscape:groupmode="layer"
     inkscape:label="Ebene 1">
    <path
       style="fill:#72410e;fill-opacity:1;fill-rule:evenodd;stroke:none;stroke-width:1px;stroke-linecap:butt;stroke-linejoin:miter;stroke-opacity:1"
       d="m 561.62143,326.77359 c 0,0 -4.94955,32.88003 -4.94955,39.24399 -2e-5,6.36396 -25.8092,-23.33459 -25.8092,-23.33459 l -5.65595,0.70707 c -8.71425,1.0894 30.05108,33.58857 30.05108,33.58857 l -3.53515,35.70887 c 6.58815,14.18769 28.5267,3.96804 22.6271,3.53542 -5.65685,0 -1.41392,-27.5764 -4.24234,-27.92995 -0.85322,-0.10666 11.79828,-2.4417 11.60687,-4.15636 16.22787,-11.10044 42.06754,-38.04443 40.36571,-53.82629 -1.44489,-13.39915 -7.07016,0.70714 -7.07016,0.70714 -2.72642,21.99866 -37.47769,44.9007 -45.96296,43.13293 -0.0153,-0.0233 -0.0297,-0.0395 -0.0449,-0.0625 l -1.72265,-29.99023 z"
       id="path6706"
       inkscape:connector-curvature="0"
       sodipodi:nodetypes="cscscccscsscccc" />
    <path
       style="opacity:1;fill:#647b29;fill-opacity:1;stroke:none;stroke-width:5;stroke-miterlimit:4;stroke-dasharray:none;stroke-opacity:1"
       d="m 470.75,174.36133 a 29.75,17.75 0 0 0 -29.75,17.75 29.75,17.75 0 0 0 1.36328,5.25195 29.25,15.75 0 0 0 -16.86328,14.24805 29.25,15.75 0 0 0 20.3125,14.99023 38.75,30 0 0 0 -14.3125,23.25977 38.75,30 0 0 0 38.75,30 38.75,30 0 0 0 9.08984,-0.8711 80.25,30.5 0 0 0 -11.83984,15.8711 80.25,30.5 0 0 0 25.91016,22.39258 36.25,24.75 0 0 0 -1.91016,7.85742 36.25,24.75 0 0 0 36.25,24.75 36.25,24.75 0 0 0 19.83398,-4.04297 34.75,24 0 0 0 29.66602,11.54297 34.75,24 0 0 0 34.75,-24 34.75,24 0 0 0 -0.0723,-1.40625 31.25,18.25 0 0 0 13.82227,1.90625 31.25,18.25 0 0 0 31.25,-18.25 31.25,18.25 0 0 0 -29.33594,-18.19336 80.25,30.5 0 0 0 0.33594,-2.55664 80.25,30.5 0 0 0 -80.25,-30.5 80.25,30.5 0 0 0 -20.53516,1.0332 A 23,22.75 0 0 0 528,259.61133 23,22.75 0 0 0 505.14062,236.86914 38.75,30 0 0 0 478.73438,220.61523 29.25,15.75 0 0 0 484,211.61133 29.25,15.75 0 0 0 483.26562,208.19336 29.75,17.75 0 0 0 500.5,192.11133 a 29.75,17.75 0 0 0 -29.75,-17.75 z m 108,50.5 a 25.75,16.75 0 0 0 -25.75,16.75 25.75,16.75 0 0 0 25.75,16.75 25.75,16.75 0 0 0 25.75,-16.75 25.75,16.75 0 0 0 -25.75,-16.75 z"
       id="path6666"
       inkscape:connector-curvature="0" />
    <ellipse
       style="opacity:1;fill:#778f39;fill-opacity:1;stroke:none;stroke-width:5;stroke-miterlimit:4;stroke-dasharray:none;stroke-opacity:1"
       id="path6704"
       cx="536"
       cy="298.36218"
       rx="48"
       ry="26" />
    <path
       style="opacity:1;fill:#778f39;fill-opacity:1;stroke:none;stroke-width:5;stroke-miterlimit:4;stroke-dasharray:none;stroke-opacity:1"
       d="m 456.25,163.86133 a 16.75,12.25 0 0 0 -16.75,12.25 16.75,12.25 0 0 0 16.75,12.25 16.75,12.25 0 0 0 16.75,-12.25 16.75,12.25 0 0 0 -16.75,-12.25 z m -30.5,40.5 a 25.75,15.75 0 0 0 -25.75,15.75 25.75,15.75 0 0 0 2.1543,6.25976 30.5,16 0 0 0 -17.6543,14.49024 30.5,16 0 0 0 30.5,16 30.5,16 0 0 0 30.5,-16 30.5,16 0 0 0 -4.31055,-8.16406 25.75,15.75 0 0 0 10.31055,-12.58594 25.75,15.75 0 0 0 -25.75,-15.75 z m 70.5,0.5 a 23.25,17.25 0 0 0 -23.25,17.25 23.25,17.25 0 0 0 23.25,17.25 23.25,17.25 0 0 0 23.25,-17.25 23.25,17.25 0 0 0 -23.25,-17.25 z m 88.25,15.5 a 11,8 0 0 0 -11,8 11,8 0 0 0 11,8 11,8 0 0 0 11,-8 11,8 0 0 0 -11,-8 z m -41.5,16 a 46,23.25 0 0 0 -46,23.25 46,23.25 0 0 0 46,23.25 46,23.25 0 0 0 40.30664,-12.04883 17,8.25 0 0 0 11.19336,2.04883 17,8.25 0 0 0 17,-8.25 17,8.25 0 0 0 -17,-8.25 17,8.25 0 0 0 -5.87695,0.51562 A 46,23.25 0 0 0 543,236.36133 Z m 83,50 a 18.5,17 0 0 0 -18.5,17 18.5,17 0 0 0 18.5,17 18.5,17 0 0 0 18.5,-17 18.5,17 0 0 0 -18.5,-17 z"
       id="path6670"
       inkscape:connector-curvature="0" />
    <g
       id="g6661"
       transform="translate(-289.85343,-150)">
      <path
         id="rect6639"
         d="m 620.85343,301.48265 0,18 60,0 0,18 47,0 -20,-9 20,-9 -40,0 0,-18 -67,0 z"
         style="opacity:1;fill:#647b29;fill-opacity:1;stroke:none;stroke-width:5;stroke-miterlimit:4;stroke-dasharray:none;stroke-opacity:1"
         inkscape:connector-curvature="0" />
      <path
         sodipodi:nodetypes="cccc"
         inkscape:connector-curvature="0"
         id="path6645"
         d="m 680.85343,319.4835 0,18 7,-18 z"
         style="fill:#72410e;fill-opacity:1;fill-rule:evenodd;stroke:none;stroke-width:1px;stroke-linecap:butt;stroke-linejoin:miter;stroke-opacity:1" />
      <rect
         y="301.48352"
         x="620.85345"
         height="75"
         width="3"
         id="rect6647"
         style="opacity:1;fill:#72410e;fill-opacity:1;stroke:none;stroke-width:5;stroke-miterlimit:4;stroke-dasharray:none;stroke-opacity:1" />
    </g>
    <path
       sodipodi:nodetypes="ssccsscs"
       inkscape:connector-curvature="0"
       id="path4746"
       d="m 154.00195,300.08789 c 0.55062,7.98534 -12.09238,45.13808 -31.66015,78.50977 -19.56778,33.3717 -46.63086,62.24804 -46.63086,62.24804 257.71763,32.93631 257.71763,32.91734 516.94926,0 0,0 -27.06313,-28.87634 -46.6309,-62.24804 -19.56777,-33.37169 -32.21273,-70.52443 -31.66211,-78.50977 2.11104,-30.61573 -158.49233,-76.42158 -181.99386,-76.35427 -22.99645,-0.18523 -180.41319,46.74272 -178.37138,76.35427 z"
       style="opacity:1;fill:#e9212d;fill-opacity:1;fill-rule:evenodd;stroke:none;stroke-width:1px;stroke-linecap:butt;stroke-linejoin:miter;stroke-opacity:1" />
    <path
       inkscape:connector-curvature="0"
       id="path4753"
       d="m 577.15234,422.81055 c -237.89824,30.18089 -249.48534,30.19959 -485.94336,0.01 -8.95885,11.03815 -15.49804,18.02539 -15.49804,18.02539 257.71763,32.93631 257.71763,32.91734 516.94926,0 0,0 -6.5444,-6.99062 -15.50786,-18.03515 z"
       style="opacity:1;fill:#647b29;fill-opacity:1;fill-rule:evenodd;stroke:none;stroke-width:1px;stroke-linecap:butt;stroke-linejoin:miter;stroke-opacity:1" />
    <path
       id="path4758"
       d="m 158.98242,289.50586 c -3.4003,3.68511 -5.21059,7.24459 -4.98047,10.58203 0.003,0.0392 -1.1e-4,0.0903 0.002,0.13086 l 360.36132,0 c 0.002,-0.0405 -7.4e-4,-0.0917 0.002,-0.13086 0.23237,-3.36998 -1.50958,-6.92541 -4.82031,-10.58203 l -350.56446,0 z"
       style="opacity:1;fill:#647b29;fill-opacity:1;fill-rule:evenodd;stroke:none;stroke-width:1px;stroke-linecap:butt;stroke-linejoin:miter;stroke-opacity:1"
       inkscape:connector-curvature="0" />
    <path
       id="path4774"
       d="m 331.19727,223.75977 c -2.11917,0.0993 -5.0299,0.4799 -8.59375,1.11132 3.56385,-0.63141 6.47458,-1.012 8.59375,-1.11132 z m -8.59375,1.11132 c -2.85109,0.50514 -6.12013,1.17018 -9.73438,1.98047 3.61425,-0.81028 6.8833,-1.47534 9.73438,-1.98047 z m 10.9707,-1.10742 c 1.29904,0.0633 2.88821,0.22602 4.73828,0.48047 -1.85007,-0.25445 -3.43925,-0.41713 -4.73828,-0.48047 z m 4.73828,0.48047 c 2.46676,0.33926 5.39657,0.84318 8.71484,1.49609 -3.31827,-0.65292 -6.24808,-1.15682 -8.71484,-1.49609 z m 8.71484,1.49609 c 6.63656,1.30584 14.82989,3.20828 23.99414,5.58985 -9.16424,-2.3816 -17.35759,-4.28399 -23.99414,-5.58985 z m 53.81446,14.05079 c 5.2604,1.60938 10.61615,3.30806 15.99609,5.08203 -5.37993,-1.77399 -10.7357,-3.47263 -15.99609,-5.08203 z m -135.55078,0.21289 c -5.15531,1.63057 -10.40499,3.35037 -15.67774,5.14453 5.27274,-1.79414 10.52243,-3.51398 15.67774,-5.14453 z m -15.67774,5.14453 c -7.90912,2.69124 -15.8689,5.54871 -23.63867,8.51953 7.76976,-2.97079 15.72956,-5.82833 23.63867,-8.51953 z m -23.63867,8.51953 c -7.76977,2.97082 -15.34996,6.05499 -22.49609,9.19922 7.14611,-3.1442 14.72633,-6.22843 22.49609,-9.19922 z m 214.98242,-0.35742 c 5.28477,1.96493 10.48316,3.98214 15.52149,6.03711 -5.03832,-2.055 -10.23673,-4.07216 -15.52149,-6.03711 z m 43.24805,18.69922 c 2.05312,1.0728 4.03101,2.14784 5.92187,3.22265 -1.89086,-1.07482 -3.86875,-2.14984 -5.92187,-3.22265 z m -306.42774,3.6289 c -1.85375,1.07009 -3.62394,2.13932 -5.30078,3.20508 1.67684,-1.06575 3.44704,-2.135 5.30078,-3.20508 z m 320.24805,4.42383 c 1.61317,1.07084 3.12804,2.13959 4.5332,3.20312 -1.40516,-1.06354 -2.92003,-2.13227 -4.5332,-3.20312 z m -164.125,21.61328 -34.29492,94.39844 -46.31445,65.40625 -0.0352,0.20312 c 59.10701,5.14762 102.43979,5.11216 161.97852,-0.0996 l -0.0176,-0.10351 -41.01172,-57.62891 -40.30469,-102.17578 z m 81.33399,159.9082 c 5.63328,-0.49311 11.42764,-1.03332 17.38085,-1.61914 -5.95722,0.58584 -11.74221,1.12556 -17.38085,1.61914 z m 17.38085,-1.61914 c 23.12761,-2.27584 49.05333,-5.26862 79.02344,-8.94336 -30.0134,3.67744 -55.86737,6.66619 -79.02344,8.94336 z m -179.35937,1.71875 c -5.57553,-0.48557 -11.2976,-1.01849 -17.18164,-1.5957 5.8785,0.577 11.61261,1.1107 17.18164,1.5957 z M 75.71094,440.8457 c 17.69418,2.26132 33.95099,4.33256 49.38281,6.28321 -15.46063,-1.95312 -31.64357,-4.01613 -49.38281,-6.28321 z m 516.94922,0 c -18.10871,2.29946 -34.68857,4.4005 -50.4375,6.37696 15.75267,-1.97809 32.33182,-4.07789 50.4375,-6.37696 z m -435.53907,10.28711 c 29.78544,3.67047 55.51316,6.64776 78.52539,8.91211 -23.02874,-2.26463 -48.716,-5.24129 -78.52539,-8.91211 z"
       style="opacity:0.9;fill:#72410e;fill-opacity:1;fill-rule:evenodd;stroke:none;stroke-width:1px;stroke-linecap:butt;stroke-linejoin:miter;stroke-opacity:1"
       inkscape:connector-curvature="0" />
    <path
       inkscape:connector-curvature="0"
       id="path4768"
       d="m 334.10745,300.43837 c 0,0 0.0415,0.26952 0.0449,0.29297 -20.22404,53.90286 -46.52571,91.74765 -85.24609,117.42187 0,0 3.30529,16.5726 4.05469,23.74805 0.82728,7.92114 0.125,19.46094 0.125,19.46094 16.87237,-5.62826 42.14781,-37.58542 54.375,-63.70117 18.04716,-38.54649 26.32178,-93.9666 26.72461,-96.71485 0.40282,2.74825 8.67549,58.16836 26.72265,96.71485 12.22719,26.11575 37.50263,58.07291 54.375,63.70117 0,0 -0.70032,-11.5398 0.12696,-19.46094 0.7494,-7.17545 4.05468,-23.74805 4.05468,-23.74805 -38.72039,-25.67422 -65.02206,-63.51901 -85.24609,-117.42187 0.003,-0.0235 0.0449,-0.29297 0.0449,-0.29297 -0.0258,0.069 -0.0523,0.13615 -0.0781,0.20508 -0.0258,-0.0689 -0.0523,-0.1361 -0.0781,-0.20508 z"
       style="fill:#fcbf34;fill-opacity:1;fill-rule:evenodd;stroke:none;stroke-width:1px;stroke-linecap:butt;stroke-linejoin:miter;stroke-opacity:1" />
  </g>
</svg>
